<svg height="512pt" viewBox="0 0 512.001 512" width="512pt" xmlns="http://www.w3.org/2000/svg"><path d="m466 180c-5.855469 0-11.445312 1.136719-16.578125 3.179688-5.207031-19.09375-22.691406-33.179688-43.414063-33.179688-5.859374 0-11.453124 1.136719-16.59375 3.183594-5.203124-19.097656-22.691406-33.183594-43.414062-33.183594-5.257812 0-10.304688.914062-15 2.582031v-77.582031c0-24.8125-20.183594-45-44.992188-45-24.820312 0-45.007812 20.1875-45.007812 45v199.5c-30.265625-8.039062-61.683594-4.257812-85.8125 11.082031-21.726562 13.816407-34.1875 35.589844-34.1875 59.746094 0 8.28125 6.714844 15 15 15h.003906c6.265625 0 12.679688-.4375 19.472656-.902344 33.0625-2.25 67.25-4.582031 93.832032 41.960938 13.386718 23.445312 21.160156 65.761719 21.691406 93.75v31.863281c0 8.285156 6.71875 15 15 15h180c8.285156 0 15-6.714844 15-15v-88.023438c20.289062-41.738281 31-86.8125 31-130.578124 0-11.273438 0-53.398438 0-53.398438 0-24.855469-21.097656-45-46-45zm16 98.398438c0 40.261718-10.171875 81.882812-29.414062 120.375-1.042969 2.082031-1.585938 4.378906-1.585938 6.707031v76.519531h-150s0-17.179688-.003906-17.273438c-.574219-31.5-8.839844-78.800781-25.636719-108.214843-35.554687-62.257813-86.652344-59.414063-120.90625-57.085938 3.34375-7.242187 9.042969-13.578125 16.828125-18.523437 20.992188-13.347656 51.75-13.917969 78.355469-1.453125 4.644531 2.179687 10.082031 1.828125 14.410156-.921875 4.332031-2.753906 6.953125-7.527344 6.953125-12.660156v-220.867188c0-8.269531 6.730469-15 15.007812-15 8.265626 0 14.992188 6.730469 14.992188 15v180c0 8.285156 6.714844 15 15 15s15-6.714844 15-15v-60c0-8.269531 6.730469-15 15-15s15 6.730469 15 15v60c0 8.285156 6.714844 15 15 15s15-6.714844 15-15v-30c0-8.269531 6.730469-15 15.007812-15 8.269532 0 15 6.730469 15 15v30c0 8.285156 6.714844 15 15 15 8.28125 0 15-6.714844 15-15 0-8.269531 6.726563-15 14.992188-15 8.523438 0 16 7.007812 16 15zm0 0"/><path d="m75 180h-23.785156l128.785156-128.785156v23.785156c0 8.285156 6.714844 15 15 15s15-6.714844 15-15v-60c0-8.285156-6.714844-15-15-15h-60c-8.285156 0-15 6.714844-15 15s6.714844 15 15 15h23.785156l-128.785156 128.789062v-23.789062c0-8.285156-6.714844-15-15-15s-15 6.714844-15 15v60c0 8.285156 6.714844 15 15 15h60c8.285156 0 15-6.714844 15-15s-6.714844-15-15-15zm0 0"/></svg>